PathFileType	4	(X/Y/Z)	SUBJ51_0_static_RCNL2025.trc
DataRate	CameraRate	NumFrames	NumMarkers	Units	OrigDataRate	OrigDataStartFrame	OrigNumFrames
100	100	7	25	mm	100	1	93
Frame#	Time	R_Shoulder			L_Shoulder			C7			J_Notch			R_Elbow			L_Elbow			R_Wrist			L_Wrist			R_Asis			L_Asis			Sacral			Thoracic			Sternum			R_Thigh_Lateral			R_Knee_Lateral			R_Shank_Lateral			R_Ankle_Lateral			R_Heel			R_Toe			L_Thigh_Lateral			L_Knee_Lateral			L_Shank_Lateral			L_Ankle_Lateral			L_Heel			L_Toe		
		X1	Y1	Z1	X2	Y2	Z2	X3	Y3	Z3	X4	Y4	Z4	X5	Y5	Z5	X6	Y6	Z6	X7	Y7	Z7	X8	Y8	Z8	X9	Y9	Z9	X10	Y10	Z10	X11	Y11	Z11	X12	Y12	Z12	X13	Y13	Z13	X14	Y14	Z14	X15	Y15	Z15	X16	Y16	Z16	X17	Y17	Z17	X18	Y18	Z18	X19	Y19	Z19	X20	Y20	Z20	X21	Y21	Z21	X22	Y22	Z22	X23	Y23	Z23	X24	Y24	Z24	X25	Y25	Z25
1	0.00000000	-206.019211	1506.394043	-33.260689	-220.467346	1515.737793	-480.876099	-302.805725	1610.699951	-267.168457	-150.186508	1508.149414	-265.127014	-243.868881	1236.365479	111.355949	-246.427307	1235.103516	-632.388489	-180.109055	973.774353	116.580791	-200.551643	980.317657	-662.106415	-137.527161	1052.901855	-128.711121	-139.964844	1035.540527	-369.235474	-355.328094	1084.003052	-253.465591	-385.157562	1391.725952	-260.161285	-94.345032	1276.538208	-267.951141	-208.958344	652.884521	-41.109646	-241.771393	529.386169	-88.523079	-294.000519	320.320374	-17.830809	-332.320160	80.976395	-128.669052	-383.320953	73.887314	-184.612076	-175.086349	48.196564	-150.748611	-239.288574	647.068848	-468.790070	-266.167847	529.257141	-420.379608	-312.906921	343.469757	-460.121277	-331.776062	74.014175	-354.158478	-379.209778	80.815773	-294.812866	-173.554092	45.691383	-342.767639
2	0.01000000	-205.956772	1506.262939	-33.330273	-220.405609	1515.779907	-480.944153	-302.734650	1610.697510	-267.124207	-150.199768	1508.102417	-265.088074	-243.372330	1236.545898	111.268791	-246.410309	1235.131104	-632.534180	-180.123314	973.762024	116.426479	-200.524284	980.366058	-662.115143	-137.618729	1052.905151	-128.789215	-140.088654	1035.516113	-369.271362	-355.327637	1084.005981	-253.481644	-385.201233	1391.709961	-260.273987	-94.280449	1276.504883	-268.006805	-208.853912	652.817139	-41.208969	-241.843842	529.438843	-88.587288	-293.892670	320.352631	-17.903028	-332.307831	80.953308	-128.699463	-383.320953	73.887314	-184.612076	-175.074020	48.178627	-150.764862	-239.447281	647.099243	-468.821869	-266.266418	529.293091	-420.433197	-313.034454	343.522614	-460.168518	-331.836975	73.987984	-354.174561	-379.278381	80.847229	-294.900848	-173.531509	45.645267	-342.793640
3	0.02000000	-205.997818	1506.244385	-33.382511	-220.247437	1515.837036	-480.948669	-302.636810	1610.697144	-267.199524	-150.138138	1508.097290	-265.131042	-244.454956	1236.161011	110.988495	-246.257309	1235.278809	-632.502869	-180.174301	973.684387	116.298557	-200.476250	980.437714	-662.138031	-137.604645	1052.928955	-128.913406	-140.216522	1035.514160	-369.391174	-355.458405	1084.012207	-253.622437	-385.252106	1391.793213	-260.372833	-94.205582	1276.587769	-268.353333	-208.856430	652.884460	-41.301914	-241.801331	529.442261	-88.612976	-293.908691	320.353729	-17.932392	-332.300171	80.983406	-128.676468	-383.301788	73.963997	-184.637497	-175.084015	48.196621	-150.747391	-239.591629	647.119995	-468.863251	-266.370209	529.281372	-420.492432	-313.153900	343.538757	-460.172058	-331.874512	74.026764	-354.169525	-379.305725	80.860619	-294.874023	-173.538574	45.675137	-342.773895
4	0.03000000	-205.967300	1506.197388	-33.507717	-220.167633	1515.869995	-481.008575	-302.645355	1610.698486	-267.185730	-150.130310	1508.084595	-265.200043	-249.635361	1233.556274	110.421516	-246.168137	1235.288940	-632.576721	-180.148369	973.601654	116.141399	-200.476814	980.505249	-662.223969	-137.673080	1052.915771	-129.029724	-140.326477	1035.517456	-369.481903	-355.607574	1084.041870	-253.646332	-385.370850	1391.875366	-260.530060	-94.139977	1276.538452	-268.512238	-208.841782	652.915588	-41.353714	-241.716522	529.448792	-88.664795	-293.862091	320.430389	-17.969667	-332.319244	80.977669	-128.668396	-383.341309	74.042854	-184.599075	-175.086197	48.200329	-150.745773	-239.738495	647.112122	-468.964752	-266.551544	529.322998	-420.526215	-313.302216	343.498474	-460.195587	-331.945770	73.968651	-354.234802	-379.317261	80.865593	-294.850159	-173.551697	45.688591	-342.762543
5	0.04000000	-206.058655	1506.143433	-33.483654	-219.948639	1515.960449	-481.048309	-302.555145	1610.756592	-267.261505	-150.155731	1508.003784	-265.199554	-250.217667	1233.555786	110.529526	-246.022995	1235.355225	-632.684265	-180.232101	973.487640	115.950451	-200.438011	980.549500	-662.280884	-137.701050	1052.926270	-129.042389	-140.439743	1035.532959	-369.532166	-355.581879	1084.012695	-253.670181	-385.362946	1391.850708	-260.664215	-94.229034	1276.599731	-268.604187	-208.914520	652.926941	-41.327129	-241.786636	529.424133	-88.735519	-293.904114	320.365082	-18.045191	-332.240723	81.455818	-128.558472	-383.311005	73.977737	-184.633087	-175.085037	48.198711	-150.751007	-240.034149	647.022156	-468.815674	-266.649780	529.279419	-420.645355	-313.402039	343.500977	-460.278259	-331.990143	73.959694	-354.249146	-379.321350	80.854439	-294.845398	-173.543213	45.656624	-342.784912
6	0.05000000	-206.085892	1506.037964	-33.560329	-219.925613	1515.958862	-481.066528	-302.418457	1610.753540	-267.251190	-150.099991	1507.919678	-265.287384	-249.855240	1233.396240	110.315300	-246.016876	1235.433472	-632.736023	-180.339287	973.384125	115.785736	-200.457611	980.609375	-662.294403	-137.701019	1052.967407	-129.091690	-140.526016	1035.587646	-369.653259	-355.637207	1084.006836	-253.750259	-385.393158	1391.937012	-260.764099	-94.114220	1276.588745	-268.743073	-208.860611	652.994507	-41.510254	-241.815613	529.495972	-88.744095	-293.929535	320.394623	-18.060013	-332.331512	81.017715	-128.650436	-383.299652	73.963898	-184.639771	-175.138153	48.205032	-150.804184	-240.225006	647.203369	-469.099182	-266.730988	529.331360	-420.663422	-313.539795	343.499878	-460.267517	-332.000427	73.929344	-354.224670	-379.309021	80.848404	-294.864319	-173.553055	45.689701	-342.768768
7	0.06000000	-206.035110	1505.999756	-33.617157	-219.790771	1516.038940	-481.044220	-302.412842	1610.809448	-267.254303	-149.934097	1507.904175	-265.298004	-249.821106	1233.287476	110.202873	-245.934906	1235.517822	-632.773621	-180.303993	973.277039	115.583961	-200.489258	980.708099	-662.345428	-137.780991	1052.937012	-129.257431	-140.593643	1035.526855	-369.794037	-355.781372	1084.026123	-253.776535	-385.386688	1392.021851	-260.794556	-94.067787	1276.516357	-268.795685	-208.857697	653.015869	-41.544338	-241.812424	529.483093	-88.737823	-293.918091	320.375427	-18.084249	-332.252350	80.972855	-128.730377	-383.302216	73.982445	-184.635895	-175.052200	48.282158	-150.856750	-240.356903	647.030762	-468.956360	-266.811340	529.370117	-420.738220	-313.560394	343.543182	-460.282593	-332.045563	73.943756	-354.186401	-379.318909	80.852425	-294.847870	-173.560150	45.699924	-342.789307
